<svg width="194" height="120" viewBox="0 0 194 120" fill="none" xmlns="http://www.w3.org/2000/svg">
<path d="M57.1038 67.0527C57.3744 67.0575 60.1207 73.7659 60.1207 76.3726C60.1207 78.9794 58.7699 81.0929 57.1038 81.0929C55.4377 81.0929 54.0869 78.9796 54.0869 76.3729C54.0869 73.7661 56.8332 67.0482 57.1038 67.0527Z" fill="#42A0F0"/>
<path d="M55.6466 77.1703C56.0873 77.2651 56.6679 76.8283 56.9433 76.1947C57.2186 75.561 57.0845 74.9705 56.6438 74.8757C56.203 74.7809 55.6225 75.2177 55.3471 75.8514C55.0717 76.485 55.2058 77.0755 55.6466 77.1703Z" fill="white"/>
<path d="M78.0384 67.0527C78.309 67.0575 81.0553 73.7659 81.0553 76.3726C81.0553 78.9794 79.7044 81.0929 78.0384 81.0929C76.3723 81.0929 75.0215 78.9796 75.0215 76.3729C75.0215 73.7661 77.7678 67.0482 78.0384 67.0527Z" fill="#42A0F0"/>
<path d="M76.5811 77.1703C77.0219 77.2651 77.6025 76.8283 77.8778 76.1947C78.1532 75.561 78.0191 74.9705 77.5783 74.8757C77.1376 74.7809 76.557 75.2177 76.2817 75.8514C76.0063 76.485 76.1404 77.0755 76.5811 77.1703Z" fill="white"/>
<path d="M100.5 67.0527C100.771 67.0575 103.517 73.7659 103.517 76.3726C103.517 78.9794 102.166 81.0929 100.5 81.0929C98.8342 81.0929 97.4834 78.9796 97.4834 76.3729C97.4834 73.7661 100.23 67.0482 100.5 67.0527Z" fill="#42A0F0"/>
<path d="M99.0431 77.1703C99.4838 77.2651 100.064 76.8283 100.34 76.1947C100.615 75.561 100.481 74.9705 100.04 74.8757C99.5995 74.7809 99.019 75.2177 98.7436 75.8514C98.4682 76.485 98.6023 77.0755 99.0431 77.1703Z" fill="white"/>
<path d="M121.245 66.2549C121.516 66.2597 124.262 72.968 124.262 75.5748C124.262 78.1815 122.911 80.2951 121.245 80.2951C119.579 80.2951 118.229 78.1818 118.229 75.575C118.229 72.9683 120.975 66.2504 121.245 66.2549Z" fill="#42A0F0"/>
<path d="M119.788 76.3724C120.229 76.4672 120.809 76.0304 121.085 75.3968C121.36 74.7632 121.226 74.1727 120.785 74.0779C120.345 73.9831 119.764 74.4199 119.489 75.0535C119.213 75.6871 119.347 76.2776 119.788 76.3724Z" fill="white"/>
<path d="M88.6087 84.8672C88.8793 84.872 91.6256 91.5803 91.6256 94.1871C91.6256 96.7938 90.2747 98.9074 88.6087 98.9074C86.9426 98.9074 85.5918 96.7941 85.5918 94.1873C85.5918 91.5806 88.3381 84.8627 88.6087 84.8672Z" fill="#42A0F0"/>
<path d="M87.1515 94.9847C87.5922 95.0795 88.1728 94.6427 88.4481 94.0091C88.7235 93.3755 88.5894 92.785 88.1487 92.6902C87.7079 92.5954 87.1274 93.0322 86.852 93.6658C86.5766 94.2994 86.7107 94.8899 87.1515 94.9847Z" fill="white"/>
<path d="M111.07 84.8672C111.34 84.872 114.087 91.5803 114.087 94.1871C114.087 96.7938 112.736 98.9074 111.07 98.9074C109.404 98.9074 108.053 96.7941 108.053 94.1873C108.053 91.5806 110.799 84.8627 111.07 84.8672Z" fill="#42A0F0"/>
<path d="M109.612 94.9847C110.053 95.0795 110.634 94.6427 110.909 94.0091C111.184 93.3755 111.05 92.785 110.61 92.6902C110.169 92.5954 109.588 93.0322 109.313 93.6658C109.038 94.2994 109.172 94.8899 109.612 94.9847Z" fill="white"/>
<path d="M134.852 84.8672C135.122 84.872 137.869 91.5803 137.869 94.1871C137.869 96.7938 136.518 98.9074 134.852 98.9074C133.186 98.9074 131.835 96.7941 131.835 94.1873C131.835 91.5806 134.581 84.8627 134.852 84.8672Z" fill="#42A0F0"/>
<path d="M133.395 94.9847C133.835 95.0795 134.416 94.6427 134.691 94.0091C134.967 93.3755 134.833 92.785 134.392 92.6902C133.951 92.5954 133.371 93.0322 133.095 93.6658C132.82 94.2994 132.954 94.8899 133.395 94.9847Z" fill="white"/>
<path d="M66.1487 85.665C66.4193 85.6698 69.1656 92.3782 69.1656 94.9849C69.1656 97.5917 67.8148 99.7052 66.1487 99.7052C64.4827 99.7052 63.1318 97.5919 63.1318 94.9852C63.1318 92.3784 65.8781 85.6605 66.1487 85.665Z" fill="#42A0F0"/>
<path d="M64.6915 95.7826C65.1323 95.8774 65.7128 95.4406 65.9882 94.807C66.2635 94.1733 66.1295 93.5828 65.6887 93.4881C65.2479 93.3933 64.6674 93.8301 64.392 94.4637C64.1167 95.0973 64.2507 95.6878 64.6915 95.7826Z" fill="white"/>
<path d="M45.0081 84.8672C45.2787 84.872 48.025 91.5803 48.025 94.1871C48.025 96.7938 46.6742 98.9074 45.0081 98.9074C43.342 98.9074 41.9912 96.7941 41.9912 94.1873C41.9912 91.5806 44.7375 84.8627 45.0081 84.8672Z" fill="#42A0F0"/>
<path d="M43.5509 94.9847C43.9916 95.0795 44.5722 94.6427 44.8475 94.0091C45.1229 93.3755 44.9888 92.785 44.5481 92.6902C44.1073 92.5954 43.5268 93.0322 43.2514 93.6658C42.976 94.2994 43.1101 94.8899 43.5509 94.9847Z" fill="white"/>
<path d="M57.1038 98.959C57.3744 98.9638 60.1207 105.672 60.1207 108.279C60.1207 110.886 58.7699 112.999 57.1038 112.999C55.4377 112.999 54.0869 110.886 54.0869 108.279C54.0869 105.672 56.8332 98.9545 57.1038 98.959Z" fill="#42A0F0"/>
<path d="M55.6466 109.077C56.0873 109.171 56.6679 108.735 56.9433 108.101C57.2186 107.467 57.0845 106.877 56.6438 106.782C56.203 106.687 55.6225 107.124 55.3471 107.758C55.0717 108.391 55.2058 108.982 55.6466 109.077Z" fill="white"/>
<path d="M78.0384 98.959C78.309 98.9638 81.0553 105.672 81.0553 108.279C81.0553 110.886 79.7044 112.999 78.0384 112.999C76.3723 112.999 75.0215 110.886 75.0215 108.279C75.0215 105.672 77.7678 98.9545 78.0384 98.959Z" fill="#42A0F0"/>
<path d="M76.5811 109.077C77.0219 109.171 77.6025 108.735 77.8778 108.101C78.1532 107.467 78.0191 106.877 77.5783 106.782C77.1376 106.687 76.557 107.124 76.2817 107.758C76.0063 108.391 76.1404 108.982 76.5811 109.077Z" fill="white"/>
<path d="M100.5 98.959C100.771 98.9638 103.517 105.672 103.517 108.279C103.517 110.886 102.166 112.999 100.5 112.999C98.8342 112.999 97.4834 110.886 97.4834 108.279C97.4834 105.672 100.23 98.9545 100.5 98.959Z" fill="#42A0F0"/>
<path d="M99.0431 109.077C99.4838 109.171 100.064 108.735 100.34 108.101C100.615 107.467 100.481 106.877 100.04 106.782C99.5995 106.687 99.019 107.124 98.7436 107.758C98.4682 108.391 98.6023 108.982 99.0431 109.077Z" fill="white"/>
<path d="M121.245 98.959C121.516 98.9638 124.262 105.672 124.262 108.279C124.262 110.886 122.911 112.999 121.245 112.999C119.579 112.999 118.229 110.886 118.229 108.279C118.229 105.672 120.975 98.9545 121.245 98.959Z" fill="#42A0F0"/>
<path d="M119.788 109.077C120.229 109.171 120.809 108.735 121.085 108.101C121.36 107.467 121.226 106.877 120.785 106.782C120.345 106.687 119.764 107.124 119.489 107.758C119.213 108.391 119.347 108.982 119.788 109.077Z" fill="white"/>
<g filter="url(#filter0_d_105_2)">
<path d="M119.983 87.6989H47.6292C40.6103 87.6951 33.8655 85.7815 28.8069 82.3585C23.7483 78.9356 20.7681 74.2687 20.4901 69.3349C20.2121 64.4012 22.6579 59.583 27.3155 55.8891C31.9731 52.1953 38.4814 49.912 45.4778 49.5175C46.4756 44.5613 49.657 39.95 54.5745 36.3321C59.492 32.7143 65.8981 30.272 72.8916 29.349C79.885 28.4259 87.1139 29.0685 93.5612 31.1863C100.008 33.3042 105.35 36.7907 108.833 41.1553C115.223 39.5994 122.126 39.4176 128.663 40.633C135.2 41.8485 141.074 44.4062 145.536 47.9798C149.998 51.5535 152.846 55.9811 153.716 60.698C154.586 65.4149 153.439 70.2073 150.422 74.4638C148.651 78.3098 145.194 81.6623 140.547 84.0401C135.899 86.4179 130.3 87.6988 124.553 87.6989H119.983Z" fill="url(#paint0_linear_105_2)"/>
<path d="M124.553 87.4326C127.471 87.4326 130.34 87.1048 133.08 86.4584C135.73 85.8333 138.217 84.9212 140.474 83.7473C142.704 82.5868 144.659 81.1968 146.285 79.6157C147.931 78.0149 149.202 76.2539 150.062 74.3816L150.07 74.3625L150.083 74.3444C151.227 72.7365 152.108 71.0355 152.701 69.2887C153.312 67.4912 153.621 65.6339 153.621 63.7686C153.621 62.1629 153.391 60.5582 152.938 58.9992C152.496 57.48 151.836 55.9856 150.978 54.5576C150.135 53.1555 149.091 51.8031 147.877 50.5381C146.673 49.285 145.291 48.1066 143.769 47.0357C142.246 45.9648 140.571 44.9925 138.79 44.1459C136.992 43.2913 135.069 42.5572 133.076 41.9642C131.046 41.3602 128.922 40.8963 126.762 40.5854C124.546 40.2664 122.265 40.1046 119.983 40.1046C116.203 40.1046 112.493 40.5422 108.956 41.4052L108.658 41.478L108.503 41.2843C105.625 37.6837 101.438 34.6598 96.3947 32.5397C93.8443 31.4675 91.1044 30.6389 88.251 30.077C85.3072 29.4973 82.2495 29.2034 79.1628 29.2034C75.011 29.2034 70.9582 29.729 67.1169 30.7658C63.4061 31.7673 60.002 33.214 56.9991 35.0657C54.0135 36.9067 51.5358 39.079 49.6349 41.5222C47.6874 44.0253 46.4144 46.7273 45.8515 49.553L45.8094 49.7646L45.5067 49.7812C42.1208 49.9677 38.8632 50.5948 35.8244 51.6451C32.8716 52.6657 30.2349 54.0462 27.9874 55.7481C23.3695 59.2451 20.8262 63.8015 20.8262 68.5778C20.8262 71.1233 21.5348 73.5925 22.9323 75.9168C23.604 77.034 24.4354 78.1115 25.4034 79.1195C26.3623 80.1179 27.4635 81.0568 28.6764 81.9101C29.8894 82.7634 31.2241 83.5381 32.6434 84.2126C34.0762 84.8936 35.6079 85.4784 37.196 85.951C40.5 86.9341 44.01 87.4326 47.6285 87.4326H119.983H124.553ZM124.553 87.6984H119.983H47.6285C32.6173 87.6984 20.4482 79.1378 20.4482 68.5778C20.4482 58.527 31.4714 50.2874 45.4772 49.5161C47.7939 37.8866 61.9926 28.9375 79.1628 28.9375C91.9009 28.9375 103.003 33.8626 108.832 41.154C112.326 40.3017 116.077 39.8387 119.983 39.8387C138.77 39.8387 153.999 50.5526 153.999 63.7686C153.999 67.6123 152.71 71.245 150.421 74.4634C146.893 82.1437 136.645 87.6984 124.553 87.6984Z" fill="white" fill-opacity="0.5"/>
</g>
<defs>
<filter id="filter0_d_105_2" x="0.448242" y="0.9375" width="193.551" height="118.762" filterUnits="userSpaceOnUse" color-interpolation-filters="sRGB">
<feFlood flood-opacity="0" result="BackgroundImageFix"/>
<feColorMatrix in="SourceAlpha" type="matrix" values="0 0 0 0 0 0 0 0 0 0 0 0 0 0 0 0 0 0 127 0" result="hardAlpha"/>
<feOffset dx="10" dy="2"/>
<feGaussianBlur stdDeviation="15"/>
<feColorMatrix type="matrix" values="0 0 0 0 0.501961 0 0 0 0 0.501961 0 0 0 0 0.501961 0 0 0 0.302 0"/>
<feBlend mode="normal" in2="BackgroundImageFix" result="effect1_dropShadow_105_2"/>
<feBlend mode="normal" in="SourceGraphic" in2="effect1_dropShadow_105_2" result="shape"/>
</filter>
<linearGradient id="paint0_linear_105_2" x1="87.2338" y1="28.9385" x2="107.962" y2="100.179" gradientUnits="userSpaceOnUse">
<stop stop-color="white" stop-opacity="0.604"/>
<stop offset="1" stop-color="white" stop-opacity="0.2"/>
</linearGradient>
</defs>
</svg>
